<svg xmlns="http://www.w3.org/2000/svg" width="777" height="196" viewBox="0 0 777 196"><path style="fill:currentColor" d="M68.9464 90.557L68.9464 90.5569L68.9404 90.5628C68.1976 91.3057 67.7197 92.4982 67.7197 93.4957C67.7197 94.7165 68.2146 95.7027 68.9404 96.4285C69.6663 97.1543 70.6525 97.6492 71.8733 97.6492C73.0928 97.6492 74.0782 97.1554 74.8038 96.4308C74.8046 96.4301 74.8053 96.4293 74.8061 96.4285L98.9014 72.725L123.197 96.6287C123.198 96.6295 123.199 96.6303 123.199 96.6311C123.942 97.3726 125.133 97.8494 126.13 97.8494C127.351 97.8494 128.337 97.3545 129.063 96.6287C129.806 95.8858 130.283 94.6934 130.283 93.6959C130.283 92.4751 129.789 91.4889 129.063 90.763L129.061 90.7611L102.035 63.9351C102.034 63.9346 102.033 63.9341 102.033 63.9336C101.29 63.1915 100.098 62.7144 99.1017 62.7144C97.8826 62.7144 96.8975 63.2078 96.1719 63.932L68.9464 90.557Z" fill="#2A666D"></path><path style="fill:currentColor" d="M68.9464 122.591L68.9464 122.591L68.9404 122.597C68.1976 123.339 67.7197 124.532 67.7197 125.529C67.7197 126.75 68.2146 127.736 68.9404 128.462C69.6833 129.205 70.8758 129.683 71.8733 129.683C73.0928 129.683 74.0782 129.189 74.8038 128.465C74.8046 128.464 74.8053 128.463 74.8061 128.462L98.9014 104.759L123.197 128.662C123.198 128.663 123.199 128.664 123.199 128.665C123.942 129.406 125.133 129.883 126.13 129.883C127.351 129.883 128.337 129.388 129.063 128.662C129.806 127.92 130.283 126.727 130.283 125.73C130.283 124.509 129.789 123.523 129.063 122.797L129.061 122.795L102.035 95.9688C102.034 95.9683 102.033 95.9677 102.033 95.9672C101.29 95.2252 100.098 94.748 99.1017 94.748C97.8826 94.748 96.8975 95.2415 96.1719 95.9657L68.9464 122.591Z" fill="#2A666D"></path><path style="fill:currentColor" d="M97.9 1.25C44.6307 1.25 1.25 44.6307 1.25 97.9C1.25 151.169 44.6307 194.55 97.9 194.55C151.169 194.55 194.55 151.169 194.55 97.9C194.55 44.6307 151.169 1.25 97.9 1.25ZM186.243 97.9C186.243 146.538 146.736 186.243 97.9 186.243C49.262 186.243 9.5571 146.736 9.5571 97.9C9.5571 49.064 49.262 9.5571 97.9 9.5571C146.537 9.5571 186.243 49.2631 186.243 97.9Z" fill="#2A666D"></path><path style="fill:currentColor" d="M241.354 87.4112L241.347 87.4265L241.342 87.442C239.913 91.5253 239.098 96.0137 239.098 100.904C239.098 105.793 239.913 110.282 241.342 114.365C242.773 118.452 244.826 121.955 247.716 124.848C250.393 127.729 253.68 129.984 257.362 131.62C261.092 133.278 265.209 133.887 269.679 133.887C274.176 133.887 278.273 133.069 281.963 131.634L281.98 131.627L281.996 131.62C285.684 129.981 288.964 127.726 291.832 124.858L291.841 124.848L291.851 124.838C294.531 121.952 296.577 118.464 298.204 114.396L298.21 114.381L298.216 114.365C299.645 110.282 300.46 105.793 300.46 100.904C300.46 96.0137 299.645 91.5253 298.216 87.442L298.207 87.4178L298.197 87.3943C296.374 83.141 294.331 79.6549 291.651 76.7686C288.972 73.8836 285.682 71.625 281.996 69.9867C278.264 68.328 273.946 67.7197 269.679 67.7197C265.182 67.7197 261.072 68.5379 257.362 70.1869C253.675 71.8252 250.386 74.0838 247.707 76.9688C245.027 79.8546 242.981 83.3433 241.354 87.4112ZM253.842 118.848L253.83 118.833L253.817 118.818C251.882 116.69 250.339 114.181 249.373 111.091L249.366 111.071L249.359 111.051C248.195 107.947 247.605 104.435 247.605 100.303C247.605 96.171 248.195 92.659 249.359 89.5548C250.54 86.406 251.899 83.8967 253.817 81.7876C255.735 79.677 258.046 78.131 260.574 76.9632C263.273 75.8079 266.172 75.226 269.479 75.226C272.801 75.226 275.892 75.8132 278.374 76.9588L278.383 76.9632L278.393 76.9672C281.094 78.1248 283.208 79.6622 285.14 81.7876C287.075 83.916 288.619 86.4245 289.584 89.5151L289.591 89.5351L289.598 89.5548C290.754 92.6377 291.152 96.1393 291.152 100.303C291.152 104.235 290.562 107.963 289.584 111.091C288.619 114.181 287.075 116.69 285.14 118.818C283.222 120.929 280.911 122.475 278.383 123.643C275.684 124.798 272.785 125.38 269.479 125.38C266.168 125.38 263.266 124.797 260.564 123.639C257.839 122.471 255.548 120.932 253.842 118.848Z" fill="#2A666D"></path><path style="fill:currentColor" d="M381.144 114.718C381.144 112.252 380.737 109.953 379.893 108.04C379.047 105.52 377.776 103.831 376.32 102.375C375.126 101.181 373.677 100.274 372.101 99.5398C372.962 98.8836 373.791 98.1566 374.518 97.4297L374.538 97.4093L374.557 97.3874C375.764 95.9798 377.038 94.2981 377.691 92.3659C378.541 90.4341 378.742 88.3245 378.742 86.4885C378.742 80.9092 376.875 76.2673 372.859 73.0926C369.064 69.9343 363.656 68.5205 356.57 68.5205H340.753H339.552H338.351H337.601V69.2705V70.4718V71.673V130.334V131.535V132.737V133.487H338.351H339.552H340.753H358.772C362.035 133.487 365.114 133.079 367.802 132.252C370.475 131.43 372.963 130.191 374.849 128.724L374.849 128.724L374.857 128.718C376.968 127.029 378.435 124.924 379.476 122.636C380.521 120.336 381.144 117.627 381.144 114.718ZM346.315 104.456H358.972C361.346 104.456 363.454 104.656 365.142 105.219C366.954 105.823 368.425 106.387 369.503 107.286C370.634 108.228 371.366 109.149 371.915 110.248C372.463 111.343 372.837 112.83 372.837 114.317C372.837 117.958 371.694 120.521 369.709 122.146L369.709 122.146L369.704 122.15C367.496 123.99 363.901 124.979 359.172 124.979H346.502L346.315 104.456ZM369.472 89.8551C369.116 90.9234 368.388 92.0282 367.451 92.9654C366.564 93.8529 365.11 94.5932 363.49 95.4036C361.776 95.9686 359.671 96.3495 357.17 96.3495H346.508V76.4272H356.97C361.912 76.4272 365.504 77.4219 367.507 79.0606C369.475 80.6711 370.423 83.0105 370.435 86.226C370.24 87.3587 369.86 88.691 369.472 89.8551Z" fill="#2A666D"></path><path style="fill:currentColor" d="M453.27 124.979H427.392V71.4723V70.2711V69.0698V68.3198H426.642H425.441H424.24H422.037H420.836H419.635H418.885V69.0698V70.2711V71.4723V130.133V131.335V132.536V133.286H419.635H420.836H422.037H453.27H454.471H455.672H456.422V132.536V131.335V130.133V128.131V126.93V125.729V124.979H455.672H454.471H453.27Z" fill="#2A666D"></path><path style="fill:currentColor" d="M490.71 68.3198H489.96V69.0698V70.2711V71.471V71.4723L489.76 130.131V130.133V131.335V132.536V133.286H490.51H491.711H492.912H495.315H496.516H497.717H498.467V132.536V131.335V130.133V71.4723V70.2711V69.0698V68.3198H497.717H496.516H495.315H493.112H491.911H490.71Z" fill="#2A666D"></path><path style="fill:currentColor" d="M630.159 87.6104L630.153 87.6257L630.148 87.6412C628.719 91.7246 627.903 96.2129 627.903 101.103C627.903 105.993 628.719 110.481 630.148 114.564C631.578 118.652 633.632 122.154 636.522 125.048C639.199 127.928 642.485 130.183 646.167 131.819C649.898 133.477 654.015 134.086 658.484 134.086C662.982 134.086 667.078 133.268 670.769 131.833L670.785 131.827L670.802 131.819C674.49 130.18 677.77 127.925 680.637 125.058L680.647 125.048L680.657 125.038C683.336 122.152 685.383 118.663 687.01 114.595L687.016 114.58L687.021 114.564C688.45 110.481 689.266 105.993 689.266 101.103C689.266 96.2129 688.45 91.7246 687.021 87.6412L687.013 87.6171L687.003 87.5936C685.18 83.3403 683.136 79.8541 680.456 76.9678C677.777 74.0828 674.488 71.8242 670.802 70.1859C667.07 68.5272 662.751 67.9189 658.484 67.9189C653.987 67.9189 649.878 68.7371 646.167 70.3861C642.481 72.0244 639.191 74.283 636.513 77.168C633.833 80.0538 631.786 83.5425 630.159 87.6104ZM642.648 119.247L642.635 119.232L642.622 119.218C640.687 117.089 639.144 114.581 638.178 111.49L638.172 111.47L638.165 111.45C637.001 108.346 636.411 104.834 636.411 100.702C636.411 96.7682 637.001 93.0565 638.165 89.9542C639.346 86.8055 640.705 84.2961 642.622 82.187C644.541 80.0764 646.852 78.5305 649.38 77.3626C652.079 76.2073 654.978 75.6254 658.284 75.6254C661.606 75.6254 664.697 76.2126 667.18 77.3583L667.189 77.3626L667.198 77.3667C669.899 78.5242 672.014 80.0616 673.946 82.187C675.881 84.3154 677.424 86.824 678.39 89.9146L678.396 89.9346L678.404 89.9542C679.56 93.0371 679.958 96.5387 679.958 100.702C679.958 104.635 679.367 108.363 678.39 111.49C677.424 114.581 675.881 117.089 673.946 119.218C672.027 121.328 669.717 122.874 667.189 124.042C664.49 125.197 661.591 125.779 658.284 125.779C654.974 125.779 652.072 125.196 649.37 124.038C646.645 122.87 644.353 121.332 642.648 119.247Z" fill="#2A666D"></path><path style="fill:currentColor" d="M772.408 130.293L772.398 130.28L772.387 130.266L770.786 128.264L770.786 128.264L770.78 128.257L751.527 104.769C752.291 104.55 752.981 104.275 753.637 104.012L753.641 104.01C756.15 103.17 758.431 101.713 760.288 100.063C762.174 98.3854 763.63 96.301 764.665 94.2316L764.671 94.2192L764.676 94.2065C765.717 91.9182 766.345 89.4103 766.345 86.6887C766.345 80.6895 764.264 76.0436 760.039 72.8749L760.034 72.8711C756.055 69.9396 750.672 68.5205 743.572 68.5205H729.358H728.156H726.955H726.205V69.2705V70.4718V71.673V130.334V131.535V132.737V133.487H726.955H728.156H729.358H731.56H732.761H733.962H734.712V132.737V131.535V130.334V105.858H740.169H740.171H740.174H740.176H740.178H740.181H740.183H740.185H740.188H740.19H740.192H740.195H740.197H740.199H740.202H740.204H740.206H740.209H740.211H740.213H740.216H740.218H740.22H740.223H740.225H740.228H740.23H740.232H740.235H740.237H740.239H740.242H740.244H740.246H740.249H740.251H740.253H740.256H740.258H740.26H740.263H740.265H740.267H740.27H740.272H740.274H740.277H740.279H740.281H740.284H740.286H740.289H740.291H740.293H740.296H740.298H740.3H740.303H740.305H740.307H740.31H740.312H740.314H740.317H740.319H740.321H740.324H740.326H740.328H740.331H740.333H740.335H740.338H740.34H740.342H740.345H740.347H740.35H740.352H740.354H740.357H740.359H740.361H740.364H740.366H740.368H740.371H740.373H740.375H740.378H740.38H740.382H740.385H740.387H740.389H740.392H740.394H740.396H740.399H740.401H740.403H740.406H740.408H740.411H740.413H740.415H740.418H740.42H740.422H740.425H740.427H740.429H740.432H740.434H740.436H740.439H740.441H740.443H740.446H740.448H740.45H740.453H740.455H740.457H740.46H740.462H740.464H740.467H740.469H740.472H740.474H740.476H740.479H740.481H740.483H740.486H740.488H740.49H740.493H740.495H740.497H740.5H740.502H740.504H740.507H740.509H740.511H740.514H740.516H740.518H740.521H740.523H740.525H740.528H740.53H740.533H740.535H740.537H740.54H740.542H740.544H740.547H740.549H740.551H740.554H740.556H740.558H740.561H740.563H740.565H740.568H740.57H740.572H740.575H740.577H740.579H740.582H740.584H740.586H740.589H740.591H740.594H740.596H740.598H740.601H740.603H740.605H740.608H740.61H740.612H740.615H740.617H740.619H740.622H740.624H740.626H740.629H740.631H740.633H740.636H740.638H740.64H740.643H740.645H740.647H740.65H740.652H740.655H740.657H740.659H740.662H740.664H740.666H740.669H740.671H740.673H740.676H740.678H740.68H740.683H740.685H740.687H740.69H740.692H740.694H740.697H740.699H740.701H740.704H740.706H740.708H740.711H740.713H740.716H740.718H740.72H740.723H740.725H740.727H740.73H740.732H740.734H740.737H740.739H740.741H740.744H740.746H740.748H740.751H740.753H740.755H740.758H740.76H740.762H740.765H740.767H740.769H740.772H740.774H740.777H740.779H740.781H740.784H740.786H740.788H740.791H740.793H740.795H740.798H740.8H740.802H740.805H740.807H740.809H740.812H740.814H740.816H740.819H740.821H740.823H740.826H740.828H740.83H740.833H740.835H740.838H740.84H740.842H740.845H740.847H740.849H740.852H740.854H740.856H740.859H740.861H740.863H740.866H740.868H740.87H740.873H740.875H740.877H740.88H740.882H740.884H740.887H740.889H740.891H740.894H740.896H740.899H740.901H740.903H740.906H740.908H740.91H740.913H740.915H740.917H740.92H740.922H740.924H740.927H740.929H740.931H740.934H740.936H740.938H740.941H740.943H740.945H740.948H740.95H740.952H740.955H740.957H740.96H740.962H740.964H740.967H740.969H740.971H740.974H740.976H740.978H740.981H740.983H740.985H740.988H740.99H740.992H740.995H740.997H740.999H741.002H741.004H741.006H741.009H741.011H741.013H741.016H741.018H741.021L741.021 106.058L741.421 106.058V106.177L741.591 106.384L762.39 131.784C762.901 132.532 763.638 132.997 764.459 133.408C764.783 133.569 765.142 133.631 765.452 133.659C765.762 133.687 766.091 133.687 766.379 133.687H766.396H768.198H770.801H773.403H774.876L774.01 132.496L772.408 130.293ZM754.557 79.297L754.557 79.2971L754.568 79.3044C756.673 80.7077 757.638 83.2058 757.638 86.6887C757.638 88.3762 757.263 89.8776 756.697 91.1982C756.155 92.465 755.239 93.5756 754.104 94.5213C753.014 95.4292 751.325 96.1933 749.553 96.7848C747.653 97.353 745.536 97.5508 742.972 97.5508H734.913V76.6274H743.572C748.491 76.6274 752.125 77.6132 754.557 79.297Z" fill="#2A666D"></path><path style="fill:currentColor" d="M589.683 126.996L589.651 126.931L589.607 126.874L587.606 124.273L587.604 124.271L585.003 120.869L582.404 117.47L547.582 70.4404C547.149 69.7944 546.644 69.2555 545.855 68.977C545.385 68.7491 544.69 68.5205 543.965 68.5205H542.964H541.763H540.562H539.812V69.2705V70.4718V71.673V130.334V131.535V132.737V133.487H540.562H541.763H542.964H544.966H546.167H547.369H548.119V132.737V131.535V130.334V85.1599L582.603 131.781L582.611 131.793L582.62 131.804C583.567 132.988 584.786 133.487 586.009 133.487H587.01H588.211H589.412H590.162V132.737V131.535V130.334V128.933V128.532V128.132V127.955L590.083 127.796L589.883 127.396L589.883 127.396L589.683 126.996Z" fill="#2A666D"></path><path style="fill:currentColor" d="M582.605 68.5205H581.855V69.2705V70.4718V71.673V105.709V106.109V106.509V106.686L581.935 106.845L582.135 107.245L582.247 107.469L582.47 107.581L582.717 107.704L584.614 110.17L586.616 112.773L586.626 112.787L586.638 112.8L588.84 115.403L590.163 116.966V114.918V111.515V108.111V71.673V70.4718V69.2705V68.5205H589.413H588.211H587.01H585.008H583.807H582.605Z" fill="#2A666D"></path></svg>